<svg width="489" height="75" viewBox="0 0 489 75" fill="none" xmlns="http://www.w3.org/2000/svg">
<path d="M17.088 14.56H26.048L42.752 60H33.664L29.44 48.672H13.568L9.408 60H0.32L17.088 14.56ZM27.84 42.464L21.568 23.712L15.04 42.464H27.84ZM65.976 60.64C63.416 60.64 61.1333 60.064 59.128 58.912C57.1227 57.76 55.544 56.1813 54.392 54.176V60H46.904V13.28H55.48V32.352C56.6747 30.3467 58.232 28.768 60.152 27.616C62.1147 26.464 64.3973 25.888 67 25.888C69.176 25.888 71.16 26.3573 72.952 27.296C74.744 28.192 76.28 29.4507 77.56 31.072C78.8827 32.6933 79.8853 34.5493 80.568 36.64C81.2933 38.7307 81.656 40.9707 81.656 43.36C81.656 45.7493 81.2507 47.9893 80.44 50.08C79.672 52.1707 78.584 54.0267 77.176 55.648C75.768 57.2267 74.104 58.464 72.184 59.36C70.3067 60.2133 68.2373 60.64 65.976 60.64ZM63.608 53.344C64.9733 53.344 66.2107 53.088 67.32 52.576C68.472 52.0213 69.4533 51.296 70.264 50.4C71.1173 49.504 71.7573 48.4587 72.184 47.264C72.6533 46.0267 72.888 44.7467 72.888 43.424C72.888 41.5893 72.504 39.904 71.736 38.368C71.0107 36.7893 69.9867 35.5307 68.664 34.592C67.384 33.6533 65.8693 33.184 64.12 33.184C62.8827 33.184 61.688 33.4827 60.536 34.08C59.4267 34.6347 58.424 35.4027 57.528 36.384C56.6747 37.3653 55.992 38.4747 55.48 39.712V47.712C55.736 48.5653 56.1413 49.3333 56.696 50.016C57.2933 50.6987 57.976 51.296 58.744 51.808C59.512 52.2773 60.3013 52.6613 61.112 52.96C61.9653 53.216 62.7973 53.344 63.608 53.344ZM103.019 60.64C100.331 60.64 97.8985 60.192 95.7225 59.296C93.5465 58.3573 91.6905 57.0987 90.1545 55.52C88.6185 53.8987 87.4238 52.064 86.5705 50.016C85.7598 47.9253 85.3545 45.728 85.3545 43.424C85.3545 40.224 86.0585 37.3013 87.4665 34.656C88.9172 32.0107 90.9652 29.8987 93.6105 28.32C96.2985 26.6987 99.4558 25.888 103.083 25.888C106.752 25.888 109.888 26.6987 112.491 28.32C115.093 29.8987 117.077 32.0107 118.443 34.656C119.851 37.2587 120.555 40.0747 120.555 43.104C120.555 43.616 120.533 44.1493 120.491 44.704C120.448 45.216 120.405 45.6427 120.363 45.984H94.4425C94.6132 47.6907 95.1038 49.184 95.9145 50.464C96.7678 51.744 97.8345 52.7253 99.1145 53.408C100.437 54.048 101.845 54.368 103.339 54.368C105.045 54.368 106.645 53.9627 108.139 53.152C109.675 52.2987 110.72 51.1893 111.275 49.824L118.635 51.872C117.824 53.5787 116.651 55.0933 115.115 56.416C113.621 57.7387 111.851 58.784 109.803 59.552C107.755 60.2773 105.493 60.64 103.019 60.64ZM94.2505 40.544H111.787C111.616 38.8373 111.125 37.3653 110.315 36.128C109.547 34.848 108.523 33.8667 107.243 33.184C105.963 32.4587 104.533 32.096 102.955 32.096C101.419 32.096 100.011 32.4587 98.7305 33.184C97.4932 33.8667 96.4692 34.848 95.6585 36.128C94.8905 37.3653 94.4212 38.8373 94.2505 40.544ZM156.947 60H148.371V41.184C148.371 38.496 147.902 36.5333 146.963 35.296C146.024 34.0587 144.723 33.44 143.059 33.44C141.907 33.44 140.734 33.7387 139.539 34.336C138.387 34.9333 137.342 35.7653 136.403 36.832C135.464 37.856 134.782 39.0507 134.355 40.416V60H125.779V26.464H133.523V32.672C134.376 31.2213 135.464 30.0053 136.787 29.024C138.11 28 139.624 27.232 141.331 26.72C143.08 26.1653 144.915 25.888 146.835 25.888C148.926 25.888 150.632 26.272 151.955 27.04C153.32 27.7653 154.344 28.768 155.027 30.048C155.752 31.2853 156.243 32.6933 156.499 34.272C156.798 35.8507 156.947 37.4507 156.947 39.072V60ZM164.404 60V26.464H172.98V60H164.404ZM164.404 21.792V13.28H172.98V21.792H164.404ZM233.532 48.288C233.532 50.848 232.87 53.0027 231.548 54.752C230.225 56.4587 228.433 57.76 226.172 58.656C223.953 59.552 221.521 60 218.876 60H196.924V14.56H221.244C223.377 14.56 225.212 15.136 226.748 16.288C228.326 17.3973 229.521 18.848 230.332 20.64C231.185 22.3893 231.612 24.224 231.612 26.144C231.612 28.32 231.057 30.3893 229.948 32.352C228.838 34.3147 227.217 35.7653 225.083 36.704C227.686 37.472 229.734 38.8587 231.228 40.864C232.764 42.8693 233.532 45.344 233.532 48.288ZM224.636 46.624C224.636 45.472 224.401 44.448 223.932 43.552C223.462 42.6133 222.822 41.888 222.012 41.376C221.244 40.8213 220.348 40.544 219.324 40.544H205.756V52.512H218.876C219.942 52.512 220.902 52.256 221.756 51.744C222.652 51.1893 223.356 50.464 223.868 49.568C224.38 48.672 224.636 47.6907 224.636 46.624ZM205.756 22.112V33.568H217.532C218.513 33.568 219.409 33.3333 220.22 32.864C221.03 32.3947 221.67 31.7333 222.14 30.88C222.652 30.0267 222.908 29.0027 222.908 27.808C222.908 26.656 222.673 25.6533 222.204 24.8C221.777 23.9467 221.18 23.2853 220.412 22.816C219.686 22.3467 218.854 22.112 217.916 22.112H205.756ZM259.56 33.888C256.957 33.888 254.632 34.4 252.583 35.424C250.536 36.4053 249.064 37.8347 248.168 39.712V60H239.592V26.464H247.464V33.632C248.658 31.328 250.173 29.5147 252.008 28.192C253.842 26.8693 255.784 26.144 257.832 26.016C258.301 26.016 258.664 26.016 258.92 26.016C259.176 26.016 259.389 26.0373 259.56 26.08V33.888ZM279.392 60.64C276.661 60.64 274.208 60.192 272.032 59.296C269.856 58.3573 268 57.0773 266.464 55.456C264.971 53.8347 263.819 51.9787 263.008 49.888C262.197 47.7973 261.792 45.6 261.792 43.296C261.792 40.9493 262.197 38.7307 263.008 36.64C263.819 34.5493 264.971 32.6933 266.464 31.072C268 29.4507 269.856 28.192 272.032 27.296C274.208 26.3573 276.661 25.888 279.392 25.888C282.123 25.888 284.555 26.3573 286.688 27.296C288.864 28.192 290.72 29.4507 292.256 31.072C293.792 32.6933 294.944 34.5493 295.712 36.64C296.523 38.7307 296.928 40.9493 296.928 43.296C296.928 45.6 296.523 47.7973 295.712 49.888C294.944 51.9787 293.792 53.8347 292.256 55.456C290.763 57.0773 288.928 58.3573 286.752 59.296C284.576 60.192 282.123 60.64 279.392 60.64ZM270.624 43.296C270.624 45.2587 271.008 47.008 271.776 48.544C272.544 50.0373 273.589 51.2107 274.912 52.064C276.235 52.9173 277.728 53.344 279.392 53.344C281.013 53.344 282.485 52.9173 283.808 52.064C285.131 51.168 286.176 49.9733 286.944 48.48C287.755 46.944 288.16 45.1947 288.16 43.232C288.16 41.312 287.755 39.584 286.944 38.048C286.176 36.512 285.131 35.3173 283.808 34.464C282.485 33.6107 281.013 33.184 279.392 33.184C277.728 33.184 276.235 33.632 274.912 34.528C273.589 35.3813 272.544 36.576 271.776 38.112C271.008 39.6053 270.624 41.3333 270.624 43.296ZM343.192 26.464H351.32L337.304 60H330.136L324.504 45.6L319 60H311.768L297.816 26.464H305.88L315.864 51.808L319.768 40.864L313.944 26.528H321.048L324.504 36.768L328.024 26.528H335.128L329.304 40.864L333.272 51.808L343.192 26.464ZM386.447 60H377.871V41.184C377.871 38.496 377.402 36.5333 376.463 35.296C375.524 34.0587 374.223 33.44 372.559 33.44C371.407 33.44 370.234 33.7387 369.039 34.336C367.887 34.9333 366.842 35.7653 365.903 36.832C364.964 37.856 364.282 39.0507 363.855 40.416V60H355.279V26.464H363.023V32.672C363.876 31.2213 364.964 30.0053 366.287 29.024C367.61 28 369.124 27.232 370.831 26.72C372.58 26.1653 374.415 25.888 376.335 25.888C378.426 25.888 380.132 26.272 381.455 27.04C382.82 27.7653 383.844 28.768 384.527 30.048C385.252 31.2853 385.743 32.6933 385.999 34.272C386.298 35.8507 386.447 37.4507 386.447 39.072V60Z" fill="#156F5F"/>
<g clip-path="url(#clip0_426_219)">
<path d="M424.833 14.6463C424.838 13.8803 425.145 13.1471 425.686 12.6052C426.228 12.0633 426.96 11.7561 427.726 11.75H480.273C481.871 11.75 483.166 13.0479 483.166 14.6463V61.3538C483.161 62.1197 482.855 62.8529 482.313 63.3948C481.772 63.9367 481.039 64.2439 480.273 64.25H427.726C426.959 64.2492 426.223 63.9437 425.68 63.4007C425.138 62.8576 424.833 62.1214 424.833 61.3538V14.6463ZM454 17.5833V58.4167H477.333V17.5833H454ZM456.916 23.4167H474.416V29.25H456.916V23.4167ZM456.916 32.1667H474.416V38H456.916V32.1667Z" fill="black"/>
</g>
<defs>
<clipPath id="clip0_426_219">
<rect width="70" height="70" fill="white" transform="translate(419 3)"/>
</clipPath>
</defs>
</svg>
